<?xml version="1.0" encoding="UTF-8"?>
<svg id="Layer_1" data-name="Layer 1" xmlns="http://www.w3.org/2000/svg" viewBox="0 0 573.28 571.53">
  <defs>
    <style>
      .cls-1, .cls-2 {
        stroke-width: 0px;
      }

      .cls-2 {
        fill: #fff;
      }
    </style>
  </defs>
  <path class="cls-1" d="M399.86,131.66h-3.35c-27.65,0-55.29.03-82.94-.05-2.19,0-3.36.67-4.54,2.54-6.86,10.86-13.91,21.6-20.9,32.39-.37.57-.75,1.14-1.41,2.15h20.51v50.26h46.81v-50.03h21.91v123.59h-21.83v-53.74h-46.74v53.68h-22.32v-121.1c-6.34,7.5-12.31,14.57-18.36,21.73-1.41-.92-2.4-1.58-3.68-2.42,23.55-33.87,39.79-70.86,49.78-111.28,7.28,4.4,14.39,8.69,21.93,13.25-12.04,7.64-15.27,20.82-22.09,32.34h3.29c26.33,0,52.66-.03,78.99.05,2.09,0,3.3-.6,4.27-2.44,1.55-2.93,3.36-5.72,5.16-8.74,5.93,4.11,11.65,8.07,18.07,12.52-2.25,2.05-4.4,3.73-6.19,5.75-.96,1.09-1.8,2.72-1.83,4.13-.68,31.48-1.09,62.97-1.88,94.46-.55,21.96-1.46,43.92-2.49,65.86-.24,5.11-1.44,10.2-2.53,15.23-2.96,13.59-13.25,19.81-25.14,24.66-1-8.02-5.86-13.21-12.61-16.11-7.28-3.13-15.05-5.14-22.62-7.6-1.05-.34-2.16-.49-3.35-.76v-3.98c3.24,0,6.34-.08,9.44.01,10.12.31,20.23.8,30.35.98,6.6.11,8.78-1.21,9.99-7.7,1.56-8.42,2.78-17.01,3.01-25.56,1.28-47.07,2.22-94.14,3.28-141.21.02-.8,0-1.6,0-2.84Z"/>
  <path class="cls-1" d="M174.21,168.71c1.23,0,2.02-.13,2.77.02,4.75.93,7.71-1.55,10.43-5.03,7.95-10.14,13.32-21.69,18.54-33.31,7.19-15.98,13.11-32.41,17.38-49.95,7.06,4.86,13.91,9.59,20.93,14.42-8.95,6.8-14.37,16.01-19.67,25.39-8.56,15.14-17.37,30.14-26.08,45.19-.55.95-1.09,1.9-1.8,3.13,3.61-.22,4.6,2.12,5.74,4.65,1.53,3.4,3.48,6.62,5.27,9.9,3.57,6.56,7.16,13.1,11.05,20.22,8.07-11.51,15.53-22.79,21.85-34.91,6.36-12.18,12.36-24.48,16.94-37.89,6.32,4.5,12.3,8.75,17.81,12.67-6.72,8.23-13.36,16.38-20,24.52.21.27.41.54.62.82h11.31c-.78,1.4-1.26,2.33-1.79,3.22-10.34,17.15-20.67,34.31-31.09,51.41-1.1,1.8-1.11,3.08-.06,4.92,9.09,15.89,18.09,31.83,27.03,47.8,1.09,1.94,2.14,2.48,4.3,1.77,2.97-.97,6.06-1.54,9.42-2.35.4,1.41.77,2.73,1.22,4.32-1.98.72-3.87,1.35-5.72,2.07-18.85,7.28-37.77,14.37-56.49,21.95-7.8,3.16-14.79,7.94-20.74,14.04-.27.27-.64.44-1.11.76-4.34-6.94-8.62-13.78-12.7-20.3,20.2-4.59,40.29-9.15,60.77-13.79-.72-1.45-1.15-2.42-1.67-3.34-5.98-10.67-11.98-21.34-17.97-32.01-1.95-3.47-3.52-3.47-5.64.09-5.67,9.57-11.31,19.17-16.95,28.75-2.57,4.36-5.07,8.75-7.76,13.03-.52.83-1.78,1.69-2.71,1.71-6.07.15-12.14.08-18.72.08.75-1.32,1.29-2.34,1.89-3.34,11.68-19.42,23.32-38.85,35.1-58.21,1.31-2.15,1.17-3.67,0-5.73-9.77-17.24-19.44-34.54-29.13-51.83-.82-1.47-1.58-2.98-2.57-4.86Z"/>
  <path class="cls-1" d="M517.69,233.72c2.83,0,5.56,0,8.28,0,.59,0,1.18.09,2.02.16-3.48,42.62-17.19,81.42-41.61,116.31-25.62,36.61-59.12,63.65-100.5,81.76,0-3.72-.15-7.02.11-10.29.07-.81,1.35-1.79,2.3-2.24,18.88-8.89,36.34-19.97,52.04-33.73,41.03-35.97,66.21-80.81,75.06-134.72.93-5.67,1.53-11.39,2.31-17.26Z"/>
  <path class="cls-1" d="M385.87,0c75.57,30.61,135.83,107.87,141.89,197.1h-10.2c-.51-4.03-.9-8.13-1.55-12.19-12.77-79.43-55.49-136.76-127.43-172.47-1.96-.97-2.99-1.9-2.77-4.24.25-2.68.06-5.4.06-8.2Z"/>
  <path class="cls-1" d="M199.93,431.16c-38.96-17.38-70.79-42.76-95.66-76.72-26.27-35.87-40.97-76.08-44.65-120.56h10.33c.77,5.82,1.39,11.64,2.33,17.41,7.03,43.5,25.31,81.66,54.68,114.48,19.96,22.3,43.52,39.87,70.57,52.7,1.81.86,2.62,1.78,2.46,3.86-.21,2.71-.05,5.45-.05,8.84Z"/>
  <path class="cls-1" d="M70.08,197.12h-10.38c3.41-41.19,16.48-78.86,39.62-112.93C124.67,46.86,158.15,19.15,199.91.43c0,3.84.13,7.22-.11,10.57-.05.74-1.33,1.6-2.22,2.03-32.76,15.65-60.2,37.91-82.2,66.75-23.74,31.12-38.39,66.12-43.76,104.94-.57,4.09-1.03,8.19-1.55,12.41Z"/>
  <path class="cls-1" d="M543.63,540.04h29.65c-.21,1.45-.27,2.83-.62,4.13-3.76,14.15-12.75,23.24-27.15,25.78-14.69,2.6-26.71-2.92-35.46-14.9-11.1-15.2-8.34-36.24,6.04-48.44,14.18-12.03,35.67-11.3,48.65,1.66.35.35.67.74,1.19,1.31-1.16,1.12-2.27,2.2-3.39,3.28-12.52-12.78-30.05-11.47-40.59-4.15-11.15,7.74-16.16,22.32-11.92,35.15,4.41,13.34,17.33,22.29,31.14,21.58,12-.62,23.1-9.38,25.65-20.47h-23.2v-4.92Z"/>
  <path class="cls-1" d="M200.82,499.55h5.01v71.96c-12.94-19.01-25.57-37.55-38.2-56.1-.19.02-.39.03-.58.05v53.5h-5.29v-71.34c13.11,19.26,25.8,37.88,38.48,56.5.19-.05.38-.09.57-.14v-54.43Z"/>
  <path class="cls-1" d="M487.62,499.55h5.01v71.96c-12.94-19.01-25.57-37.55-38.19-56.09-.19.02-.39.03-.58.05v53.49h-5.29v-71.34c13.11,19.26,25.8,37.88,38.48,56.5.19-.05.38-.09.57-.14v-54.43Z"/>
  <path class="cls-1" d="M326.19,569.03h-5.04v-34.48h-33.35v34.44h-5.04v-69.43h4.83c.05,1.13.14,2.22.14,3.3.01,8,.05,16-.03,24-.02,1.94.56,2.65,2.58,2.64,9.42-.09,18.83-.1,28.25,0,2.28.03,2.66-.94,2.64-2.89-.07-7.9-.03-15.8-.03-23.69,0-1.08,0-2.16,0-3.38h5.04v69.49Z"/>
  <path class="cls-1" d="M52.41,499.54h5.31c0,1.22,0,2.3,0,3.37,0,13.96-.04,27.93.04,41.89.01,2.71.2,5.49.8,8.12,1.7,7.45,8.79,12.69,16.56,12.53,7.89-.17,14.72-5.82,16.05-13.51.45-2.57.57-5.23.58-7.84.06-13.66.03-27.32.03-40.98,0-1.1,0-2.2,0-3.51h5.08c.08.84.23,1.61.23,2.39.01,14.77.07,29.55-.01,44.32-.07,11.47-5.44,19.55-15.01,22.93-13.53,4.79-27.65-3.96-29.27-18.2-.3-2.6-.37-5.25-.38-7.87-.04-13.36-.02-26.71-.02-40.07v-3.58Z"/>
  <path class="cls-1" d="M378.59,499.55h5.07c.09.91.23,1.69.23,2.46.01,14.77,0,29.55.01,44.32.01,9.7-3.63,17.36-12.54,21.86-13.81,6.97-30.01-1.81-31.76-17.14-.3-2.6-.37-5.25-.38-7.87-.04-13.36-.02-26.71-.02-40.07v-3.49h5.31v3.31c0,13.96-.05,27.93.04,41.89.02,2.81.22,5.7.89,8.41,1.84,7.45,9.02,12.53,16.79,12.22,7.78-.31,14.43-5.93,15.74-13.51.45-2.57.57-5.23.58-7.84.06-13.66.03-27.32.03-40.98v-3.56Z"/>
  <path class="cls-1" d="M101.52,569c8.96-23.82,17.84-47.42,26.96-71.66,9.11,24.21,17.99,47.79,26.87,71.39q-5.23,1.09-6.93-3.53c-2.15-5.88-4.34-11.75-6.4-17.66-.56-1.59-1.36-2.14-3.06-2.12-6.98.1-13.96.13-20.94-.01-1.93-.04-2.6.79-3.16,2.39-2.01,5.72-4.12,11.4-6.2,17.09q-1.63,4.47-7.14,4.11ZM139.3,540.49c-3.62-9.72-7.09-19.05-10.83-29.12-3.76,10.16-7.22,19.53-10.76,29.12h21.59Z"/>
  <path class="cls-1" d="M414.68,497.32c9.14,24.29,18.02,47.89,26.92,71.56q-5.39.68-7.03-3.82c-2.11-5.79-4.28-11.56-6.28-17.38-.6-1.74-1.48-2.28-3.28-2.26-6.88.1-13.76.13-20.64-.01-2.02-.04-2.76.76-3.37,2.52-1.93,5.63-4.05,11.21-6.1,16.8q-1.73,4.72-7.17,4.22c8.9-23.67,17.77-47.26,26.94-71.63ZM414.69,511.37c-3.72,10.03-7.21,19.43-10.78,29.07h21.56c-3.55-9.58-7.04-18.99-10.78-29.07Z"/>
  <path class="cls-1" d="M0,568.9c.53-1.04.99-2.02,1.51-2.96,5.59-10.08,11.12-20.18,16.84-30.18,1.18-2.05,1.07-3.51-.07-5.5-5.28-9.2-10.39-18.51-15.56-27.78-.48-.86-.88-1.76-1.35-2.68q5.38-.99,7.89,3.54c4.4,7.95,8.81,15.9,13.46,24.3.72-1.24,1.26-2.13,1.76-3.04,4.01-7.25,8.01-14.51,12.02-21.77q2.2-3.99,7.47-3.01c-.53,1.04-.98,2-1.5,2.93-5.06,9.21-10.05,18.47-15.25,27.6-1.17,2.06-1.06,3.52.07,5.5,5.66,9.92,11.17,19.93,16.72,29.91.53.95,1.02,1.93,1.55,2.93-5.2,1.17-5.52,1.03-7.9-3.28-4.88-8.84-9.77-17.68-14.87-26.9-1.4,2.46-2.64,4.6-3.83,6.76-3.67,6.63-7.33,13.27-10.99,19.91q-2.41,4.37-7.99,3.72Z"/>
  <path class="cls-1" d="M76.32,233.91h2.46c1.25,7.98,2.11,15.94,3.78,23.72,14.62,68.11,53.38,117.77,114.99,149.86,2.46,1.28,2.48,1.24,2.1,4.09-71.07-32.21-118.51-104.72-123.34-177.66Z"/>
  <path class="cls-1" d="M78.71,197.12h-2.93c1.38-8.67,2.39-17.19,4.13-25.54,15.91-76.28,68.52-128.22,119.71-151.59.91,2.14-.04,3.13-1.95,4.12-59.92,30.96-98.27,79-114.04,144.71-2.21,9.21-3.28,18.7-4.92,28.31Z"/>
  <path class="cls-1" d="M386.27,410.9c-1.23-2.71.38-3.53,2.21-4.49,55.26-29.18,92.15-73.51,109.29-133.73,3.27-11.51,4.52-23.59,6.69-35.41.2-1.08.31-2.18.48-3.36h2.93c-3.48,39.46-16.46,75.22-39.29,107.34-21.48,30.21-49.01,53.32-82.3,69.66Z"/>
  <path class="cls-1" d="M386.39,20.33c71.32,37.8,112.01,96.26,121.8,176.64-1.33.14-2.16.23-3.21.34-.19-1.04-.41-1.9-.49-2.77-1.47-15.67-4.59-31.01-9.69-45.9-18.96-55.35-54.65-96.36-106.38-123.5-1.73-.91-3.3-1.67-2.02-4.82Z"/>
  <path class="cls-1" d="M560.4,515.23c-7.88-8.14-17.42-10.58-28.08-7.92-7.73,1.93-13.48,6.77-17.26,13.83-7.65,14.28-1.69,31.81,13.14,38.7,12.77,5.93,29.28.34,34.03-11.89h-18.68c0-.29-.01-.59-.02-.88h21.05c-.72,1.37-1.36,2.91-2.27,4.27-10.36,15.54-32.12,16.66-44.68,2.33-10.24-11.69-9.67-29.25,1.3-40.2,10.77-10.75,28.64-11.55,39.76-1.77.89.79,1.63,1.75,2.43,2.64-.25.3-.49.6-.74.89Z"/>
  <path class="cls-1" d="M376.85,499.59c0,.97,0,1.94,0,2.9,0,14.27,0,28.53,0,42.8,0,1.11-.03,2.23-.08,3.34-.41,8.65-6.51,14.88-14.74,15.07-8.54.2-14.96-5.63-15.58-14.47-.32-4.63-.17-9.3-.17-13.96-.02-10.83,0-21.65,0-32.48,0-1.07,0-2.15,0-3.22.33-.03.67-.06,1-.09.12,1.04.34,2.09.34,3.13.02,13.66,0,27.32.04,40.98,0,2.32.13,4.66.48,6.95,1.06,6.97,6.49,11.74,13.28,11.81,6.83.08,12.53-4.8,13.6-11.8.35-2.29.47-4.63.48-6.94.04-13.66.02-27.32.03-40.98,0-1.03.11-2.05.17-3.08.39.01.78.02,1.16.03Z"/>
  <path class="cls-1" d="M60.82,499.58v3.18c0,13.56-.02,27.12.02,40.68,0,2.42.14,4.86.5,7.25,1.06,6.89,6.66,11.69,13.4,11.67,6.76-.02,12.38-4.82,13.44-11.64.35-2.29.5-4.63.5-6.94.05-13.66.02-27.32.02-40.98v-3.2l.89-.11c.15.65.43,1.3.43,1.95,0,15.78.19,31.57-.15,47.35-.26,12.34-13.39,19-23.69,12.36-4.16-2.68-6.4-6.71-6.48-11.44-.26-16.39-.18-32.78-.2-49.17,0-.33.25-.67.38-1,.31.02.62.04.93.06Z"/>
  <path class="cls-1" d="M169.86,525.69v43.94c-1.6-2.12-2.15-38.65-1.13-49.64,11.75,17.26,23.14,33.99,34.53,50.72-.39.27-.77.55-1.16.82-5.22-7.64-10.43-15.29-15.65-22.93-5.24-7.68-10.48-15.37-15.72-23.05-.29.05-.58.1-.87.15Z"/>
  <path class="cls-1" d="M456.6,525.71v43.32c-.3,0-.6,0-.9,0v-48.81c11.59,17.02,22.97,33.73,34.33,50.41-.31.29-.38.37-.46.42-.08.05-.18.1-.27.09-.19-.03-.42-.04-.57-.15-.24-.17-.47-.4-.64-.64-10.19-14.94-20.38-29.89-30.57-44.84-.31.07-.62.13-.92.2Z"/>
  <path class="cls-1" d="M289.77,569.06v-32.78h29.41v32.74c-.28,0-.55.01-.83.02v-31.29h-27.6v31.32c-.33,0-.66-.01-.98-.02Z"/>
  <path class="cls-1" d="M433.34,569.97c-.7-1.52-1.13-2.33-1.45-3.18-1.97-5.3-3.97-10.59-5.81-15.93-.57-1.66-1.29-2.4-3.18-2.35-5.46.14-10.92.13-16.38,0-1.85-.04-2.63.6-3.21,2.31-1.86,5.44-3.9,10.82-5.91,16.22-.3.8-.81,1.51-1.23,2.26-.29-.13-.57-.26-.86-.39.74-2.13,1.45-4.27,2.21-6.39,1.58-4.37,3.23-8.71,4.75-13.09.52-1.49,1.12-2.29,2.94-2.25,6.37.14,12.74,0,19.11.11.79.01,2.04.6,2.28,1.23,2.52,6.6,4.88,13.25,7.26,19.9.05.14-.11.35-.53,1.56Z"/>
  <path class="cls-1" d="M118.02,548.55c-2.6,6.98-5.16,13.87-7.72,20.75-.28-.08-.56-.15-.84-.23,0-.5-.14-1.05.02-1.49,2.22-6.17,4.52-12.32,6.7-18.51.53-1.51,1.37-1.9,2.89-1.88,6.27.08,12.54-.02,18.81.09.88.02,2.27.61,2.54,1.29,2.52,6.49,4.86,13.05,7.22,19.6.08.23-.06.54-.67,1.1-.4-.75-.9-1.47-1.2-2.27-2.04-5.49-3.97-11.02-6.11-16.46-.33-.85-1.58-1.88-2.42-1.9-6.36-.16-12.73-.09-19.22-.09Z"/>
  <path class="cls-1" d="M199,499.61v48.88c-.12.07-.24.14-.36.21-.3-.9-.86-1.79-.86-2.69-.05-14.87-.04-29.73-.02-44.6,0-.63.28-1.26.43-1.89.27.03.54.06.82.09Z"/>
  <path class="cls-1" d="M485.7,548.68c-1.45-2.18-1.71-46.5,0-49.91v49.91Z"/>
  <path class="cls-1" d="M8,568.78c4.87-8.82,9.74-17.64,14.83-26.87,5.1,9.24,9.96,18.06,14.83,26.87-.2.17-.4.34-.6.51-.62-.68-1.4-1.26-1.84-2.04-3.62-6.43-7.17-12.9-10.75-19.35-.48-.87-1-1.71-1.66-2.83-4.81,8.25-8.96,16.51-13.71,24.4-.37-.23-.74-.46-1.11-.69Z"/>
  <path class="cls-1" d="M22.81,521.19c4.2-7.51,8.25-14.76,12.31-22.01.38.22.77.44,1.15.67-4.39,7.98-8.77,15.97-13.43,24.44-4.63-8.39-9.05-16.4-13.47-24.41.32-.2.64-.39.95-.59,2.52,3.19,4.09,7.01,6.13,10.51,2.13,3.67,4.14,7.4,6.36,11.39Z"/>
  <path class="cls-1" d="M318.32,527.58v-27.93c.24,0,.47,0,.71,0v27.89c-.24.01-.47.03-.71.04Z"/>
  <path class="cls-1" d="M290.51,499.58v28.04c-.25,0-.5,0-.75,0v-28.04c.25,0,.5,0,.75,0Z"/>
  <path class="cls-2" d="M139.3,540.49h-21.59c3.55-9.6,7.01-18.96,10.76-29.12,3.75,10.07,7.22,19.4,10.83,29.12ZM128.48,516.21c-2.92,7.91-5.58,15.11-8.24,22.31.4.16.79.32,1.19.49,2.3-5.99,4.61-11.99,7.03-18.3,2.86,6.24,4.32,12.55,7.27,18.19.34-.14.68-.28,1.02-.42-2.67-7.19-5.33-14.38-8.26-22.27Z"/>
  <path class="cls-2" d="M414.69,511.37c3.74,10.08,7.22,19.49,10.78,29.07h-21.56c3.57-9.64,7.06-19.04,10.78-29.07ZM414.67,516.19c-2.94,7.99-5.58,15.15-8.22,22.31.4.16.8.31,1.2.47,2.29-6.01,4.59-12.01,7-18.32,2.8,6.2,4.31,12.54,7.24,18.24.35-.15.69-.3,1.04-.45-2.65-7.15-5.31-14.31-8.25-22.24Z"/>
  <path class="cls-1" d="M128.48,516.21c2.93,7.89,5.59,15.08,8.26,22.27-.34.14-.68.28-1.02.42-2.95-5.64-4.41-11.95-7.27-18.19-2.42,6.31-4.73,12.3-7.03,18.3-.4-.16-.79-.32-1.19-.49,2.66-7.2,5.32-14.4,8.24-22.31Z"/>
  <path class="cls-1" d="M414.67,516.19c2.94,7.94,5.6,15.09,8.25,22.24-.35.15-.69.3-1.04.45-2.93-5.7-4.44-12.04-7.24-18.24-2.41,6.31-4.7,12.32-7,18.32-.4-.16-.8-.31-1.2-.47,2.64-7.16,5.28-14.32,8.22-22.31Z"/>
</svg>